<svg xmlns="http://www.w3.org/2000/svg" viewBox="0 0 64 64" width="64" height="64" fill="none">
  <defs>
    <radialGradient id="glow" cx="50%" cy="35%" r="60%">
      <stop offset="0%" stop-color="#60A5FA" stop-opacity="0.9"/>
      <stop offset="60%" stop-color="#3B82F6" stop-opacity="0.35"/>
      <stop offset="100%" stop-color="#1E3A8A" stop-opacity="0"/>
    </radialGradient>
  </defs>
  <circle cx="32" cy="24" r="20" fill="url(#glow)"/>
  <path d="M22 27c0-5.523 4.477-10 10-10s10 4.477 10 10c0 3.42-1.718 6.433-4.34 8.24-1.03.72-1.66 1.9-1.66 3.16V40a2 2 0 0 1-2 2h-4a2 2 0 0 1-2-2v-1.6c0-1.26-.63-2.44-1.66-3.16C23.718 33.433 22 30.42 22 27Z" stroke="#93C5FD" stroke-width="2.5"/>
  <path d="M27 44h10M27 48h10" stroke="#60A5FA" stroke-width="2.5" stroke-linecap="round"/>
  <path d="M32 8v4M32 40v4M12 24h4M48 24h4M18 12l3 3M46 12l-3 3M18 36l3-3M46 36l-3-3" stroke="#3B82F6" stroke-width="2" stroke-linecap="round"/>
</svg>


